<?xml version="1.0" standalone="no"?>
<!DOCTYPE svg PUBLIC "-//W3C//DTD SVG 20010904//EN"
 "http://www.w3.org/TR/2001/REC-SVG-20010904/DTD/svg10.dtd">
<svg version="1.0" xmlns="http://www.w3.org/2000/svg"
 width="544.000000pt" height="544.000000pt" viewBox="0 0 544.000000 544.000000"
 preserveAspectRatio="xMidYMid meet">
<metadata>
Created by potrace 1.11, written by Peter Selinger 2001-2013
</metadata>
<g transform="translate(0.000000,544.000000) scale(0.100000,-0.100000)"
fill="#000000" stroke="none">
<path d="M917 3504 c-1 -1 -22 -4 -47 -7 -266 -30 -430 -226 -386 -462 17 -91
88 -177 192 -232 50 -27 182 -72 258 -88 189 -39 334 -91 383 -137 74 -69 77
-194 5 -279 -95 -113 -383 -135 -554 -42 -90 49 -135 110 -158 214 -12 55 -13
56 -44 53 -17 -2 -55 -5 -85 -8 -29 -3 -56 -7 -59 -10 -12 -12 20 -143 50
-203 63 -129 198 -228 349 -257 19 -3 45 -8 59 -11 56 -12 247 -6 313 9 153
36 270 125 328 249 31 65 34 81 34 162 0 82 -3 97 -32 156 -38 77 -101 139
-181 179 -56 28 -233 85 -297 96 -119 20 -292 79 -336 116 -45 37 -62 127 -36
191 23 53 80 102 144 123 81 27 256 26 331 -1 106 -39 177 -131 181 -237 1
-11 8 -16 20 -13 11 2 48 5 83 6 77 3 87 6 83 27 -1 9 -6 37 -10 62 -10 59
-57 150 -105 199 -67 69 -180 122 -292 136 -52 7 -186 13 -191 9z"/>
<path d="M1859 2920 c-102 -18 -193 -93 -230 -189 -26 -65 -34 -207 -17 -285
31 -144 152 -238 309 -238 140 -1 243 57 288 163 12 28 21 53 18 55 -2 2 -29
7 -60 10 l-55 6 -17 -36 c-49 -103 -182 -135 -279 -68 -46 32 -85 100 -88 157
l-3 40 250 0 c162 -1 253 3 257 10 9 12 2 89 -13 152 -40 158 -193 253 -360
223z m122 -100 c65 -18 112 -77 125 -154 l5 -32 -191 0 c-186 0 -190 0 -190
20 1 33 36 102 65 128 47 41 120 56 186 38z"/>
<path d="M2580 2914 c-21 -9 -48 -32 -67 -60 l-31 -46 2 52 2 51 -55 -3 -54
-3 1 -320 c0 -176 1 -330 1 -342 1 -21 6 -23 59 -23 l57 0 1 193 c0 105 4 218
8 249 14 110 82 163 168 133 23 -8 43 -13 44 -12 1 1 11 28 21 59 l20 57 129
-340 129 -339 55 0 55 0 54 143 c30 78 89 233 132 345 l77 202 -62 0 -62 0
-58 -162 c-33 -90 -75 -209 -95 -265 -20 -57 -38 -103 -41 -103 -3 0 -18 35
-32 78 -15 42 -48 136 -73 207 -26 72 -56 156 -67 188 l-20 58 -82 -2 c-45 -2
-88 1 -95 5 -22 14 -86 14 -121 0z"/>
<path d="M3682 2915 c-104 -24 -185 -103 -218 -210 -28 -93 -18 -246 23 -334
54 -118 201 -185 348 -159 83 15 204 95 205 136 0 6 4 12 9 12 17 0 43 124 43
204 0 127 -23 195 -94 272 -68 74 -198 107 -316 79z m192 -118 c67 -52 96
-117 97 -220 2 -98 -18 -162 -64 -212 -87 -94 -222 -83 -294 24 -63 94 -60
267 8 365 52 76 181 97 253 43z"/>
</g>
</svg>
